<?xml version="1.0" encoding="UTF-8"?><svg xmlns="http://www.w3.org/2000/svg" version="1.2" baseProfile="tiny-ps" viewBox="-6 -2 28 28"><title>Diacritical</title><circle r="64" fill="#FFF"/><path fill="#1B1B1B" d="M13.79 13.21c0 1.78-.48 3.39-1.18 4.26-.26-1.81-1.28-3.17-3-4.59-.7-.61-1.53-1.29-2.94-3.07.7-1.1 1.85-1.65 3-1.65 2.88.01 4.12 2.31 4.12 5.05M3.8 9.88c-2.4.17-3.8 2.49-3.8 4.43 0 2.23 1.56 4.55 3.48 4.55.32 0 .54-.06.8-.23.54-.32 1.5-.78 2.84-.78 1.79 0 2.91 1.07 2.91 2.58 0 .97-.64 1.65-1.34 1.65-.51 0-.96-.39-1.12-.74-.13-.23-.22-.39-.42-.39-.38 0-1.09.52-1.09 1.36 0 .94.8 1.68 1.72 1.68.8 0 1.63-.52 2.11-1.2.42-.58.7-.71 1.21-1.1 2.81-1.78 4.98-5.49 4.89-8.92-.1-4.04-2.87-6.33-5.56-6.33-1.79 0-3.29.71-4.5 2.2-1.04-.95-1.68-2.47-1.68-3.92 0-2.13 1.15-3.2 2.49-3.2 1.31 0 1.85.87 2.08 2.03.03.23.16.29.51.23.51-.1 1.37-.58 1.37-1.65C10.7 1.2 9.83 0 8.24 0c-1.28 0-2.65.52-3.9 1.65a6.065 6.065 0 0 0-2.08 4.59c0 1.42.67 2.71 1.53 3.55v.09z"/></svg>
