<?xml version="1.0" encoding="UTF-8"?><svg xmlns="http://www.w3.org/2000/svg" version="1.2" baseProfile="tiny-ps" viewBox="0 0 512 512"><title>Diacritical</title><path fill="#f5f5f5" d="M0 0h512v512H0z"/><path fill="#222" d="M348.74 275.45c0 28.49-7.68 54.26-18.89 68.19-4.16-28.97-20.49-50.74-48.02-73.47-11.21-9.76-24.49-20.65-47.06-49.14 11.21-17.61 29.61-26.41 48.02-26.41 46.1.16 65.95 36.98 65.95 80.83m-159.91-53.3c-38.42 2.72-60.83 39.86-60.83 70.91 0 35.69 24.97 72.83 55.71 72.83 5.12 0 8.64-.96 12.81-3.68 8.64-5.12 24.01-12.49 45.46-12.49 28.65 0 46.58 17.13 46.58 41.3 0 15.53-10.24 26.41-21.45 26.41-8.16 0-15.37-6.24-17.93-11.84-2.08-3.68-3.52-6.24-6.72-6.24-6.08 0-17.45 8.32-17.45 21.77 0 15.05 12.81 26.89 27.53 26.89 12.81 0 26.09-8.32 33.78-19.21 6.72-9.28 11.21-11.36 19.37-17.61 44.98-28.49 79.72-87.88 78.28-142.78-1.6-64.67-45.94-101.32-89-101.32-28.65 0-52.66 11.36-72.03 35.21-16.65-15.21-26.89-39.54-26.89-62.75 0-34.09 18.41-51.22 39.86-51.22s29.61 13.93 33.3 32.49c.48 3.68 2.56 4.64 8.16 3.68 8.16-1.6 21.93-9.28 21.93-26.41C299.3 83.2 285.37 64 259.92 64c-20.49 0-42.42 8.32-62.43 26.41a97.086 97.086 0 0 0-33.3 73.47c0 22.73 10.72 43.38 24.49 56.82v1.44h.16Z"/></svg>
